<svg id="Calque_1" data-name="Calque 1" xmlns="http://www.w3.org/2000/svg" viewBox="0 0 241.9 185.02"><defs><style>.cls-1{fill:#f0bc5e;}</style></defs><title>logo-wanted</title><path d="M44,20.26l3,3L42.25,26.5,37.72,42.62l-5.87,0L25.24,23.85l-5,18.72H13.91L9.43,27.18,4.29,23.33l3.06-3.12-2.28-7.9A4.87,4.87,0,0,0,1,8.56L1.06,4.3c.57,0,6.29,0,17.16,0l.05,4.16a7.09,7.09,0,0,0-2.7.62,2.62,2.62,0,0,0-1.2,2.39A27.8,27.8,0,0,0,16,18.13L18.17,25,23.53,4.4l5.72-.05,7.28,22L39,18.29c1.3-4.16,1.93-6.71,1.93-7.6a2.17,2.17,0,0,0-1.3-2,4.85,4.85,0,0,0-2.55-.52v-4l13.78.16V8.67a3.74,3.74,0,0,0-1.09-.16c-1.72,0-2.91,1.35-3.7,4.11Z" transform="translate(-1.01 -3.98)"/><path d="M83.79,20l5.78,3.33L87,26.09l4.83,9.36c1.35,2.6,2.76,3.79,4.21,3.64v3.58l-18.14-.15V39.09a8.83,8.83,0,0,0,2.91-.47c1.19-.42,1.82-1,1.82-1.87a5.66,5.66,0,0,0-.94-2.5c-.26-.47-.67-1.25-1.35-2.34H64.19A16.06,16.06,0,0,0,62.84,36c0,2.13,1.61,3.17,4.78,3.12v3.32l-15.86-.1V38.88A5.43,5.43,0,0,0,57,35.45l3.95-9.1-3-3,6-4.16c2.24-5.25,3.33-8.27,3.33-9,0-1.09-.68-1.61-2.08-1.61a10.21,10.21,0,0,0-1.3.11l0-4.53H82.86V8.25a4.41,4.41,0,0,0-2.24.67,2.17,2.17,0,0,0-1.14,1.93A3.68,3.68,0,0,0,80,12.62Zm-6.6,6.45L71.31,14.65l-4.68,11.7Z" transform="translate(-1.01 -3.98)"/><path d="M129.66,19.43l3.74,3.85-3.74,4v15h-3.85L108.29,22.13V33.89c0,3.32,1.4,4.94,4.21,4.83v3.75c-.52.2-2.91.31-7.13.26s-6.5,0-6.76-.06V38.83a4.07,4.07,0,0,0,3.64-4.22V27.28l-.1,0-4-4,4-4,.1.1V15.37a7.17,7.17,0,0,0-1.4-4.62,5.13,5.13,0,0,0-4.37-1.93V4.19h8.89l18.72,21.53V13.45c0-3.38-1.3-5-3.9-5V4.25c.37-.06,2.55-.11,6.56-.11s6.24,0,6.65,0V8.51a3.69,3.69,0,0,0-3.74,3.74Z" transform="translate(-1.01 -3.98)"/><path d="M155.5,19.53l3.64,3.75-3.64,3.85V34a6.15,6.15,0,0,0,.88,3.23,3,3,0,0,0,2.81,1.45l.06,3.64a7.2,7.2,0,0,1-2,.26H144.42a11.57,11.57,0,0,1-1.29,0V39a4,4,0,0,0,3.43-4V27.28l-4.06-4,4.06-3.9V12.77c0-2.13-.94-3.17-2.76-3.17-2,0-3.48,1.4-4.58,4.16a20.29,20.29,0,0,0-1.3,6.55l-3.43-1.87V4l33-.06V17.87L163.67,20a59.3,59.3,0,0,0-.78-6.13c-.73-2.87-2-4.32-3.7-4.32A3.77,3.77,0,0,0,155.5,13Z" transform="translate(-1.01 -3.98)"/><path d="M171.52,23.33l3.58-3.64v-5.3a9.86,9.86,0,0,0-.88-4.32,3.08,3.08,0,0,0-3.48-1.92V4.35c8.26,0,18.35,0,30.37,0l-.26,9.36-3,.93c-.67-3.38-4-5.67-7.64-5.67-2.4,0-4.06.63-4.94,1.88-.78,1-1.2,2.81-1.2,5.25v2.13c0-.15,0,.26.05,1.25v.94a5.26,5.26,0,0,0,2,.41c2.34,0,3.59-1.71,3.74-5.15l3.65.16L194,28.43h-4.16A7.8,7.8,0,0,0,188.63,26a3.48,3.48,0,0,0-2.66-.83,2,2,0,0,0-1.76.78,44.42,44.42,0,0,0,.36,7.44c.68,3.17,2.23,4.73,4.78,4.73,5.46,0,9.26-3.17,9.47-8.58L203,30l-.94,12.58L172,42.47V38.62a2.68,2.68,0,0,0,2.44-1.93,7.48,7.48,0,0,0,.68-3.27V27Z" transform="translate(-1.01 -3.98)"/><path d="M242.91,23.28l-3.74,4a21.28,21.28,0,0,1-3.28,9.47c-2.75,4-6.81,6-12.16,6H207.66a13.38,13.38,0,0,1-1.41-.11V39.29a4.88,4.88,0,0,0,3.9-4.94l-.05-7-3.95-4,3.95-4,.05.05V13.92c0-4.37-1.3-6.35-4-6V4.09l17.11.1c4.68,0,8.37,1.41,11.13,4.16s4.21,6.35,4.73,11.08Zm-17.16,0,3.85-3.9a27.18,27.18,0,0,0-1-5.82c-1.09-3.8-2.86-5.67-5.2-5.67-3,0-4.52,1.87-4.52,5.56v5.88l3.79,3.9-3.79,4V33a6.72,6.72,0,0,0,.78,3.33,2.9,2.9,0,0,0,2.7,1.77c4,0,6.35-3.64,7.13-11Z" transform="translate(-1.01 -3.98)"/><path class="cls-1" d="M169.35,151.26a4.17,4.17,0,0,1,4.58-2L156.23,124l17.7-25.29a4.17,4.17,0,0,1-4-6.91h0l-30.73,2.68-13.06-28a4.17,4.17,0,0,1-8,0l-13.06,28L74.33,91.79a4.16,4.16,0,0,1-4,6.92L88,124,70.34,149.29a4.17,4.17,0,0,1,4,6.91h0l30.73-2.68,13.06,28a4.17,4.17,0,0,1,8,0l13.05-28,30.76,2.68A4.16,4.16,0,0,1,169.35,151.26Z" transform="translate(-1.01 -3.98)"/><path d="M122.13,109.32A14.68,14.68,0,1,0,136.81,124,14.69,14.69,0,0,0,122.13,109.32Zm0,25.16A10.48,10.48,0,1,1,132.62,124,10.49,10.49,0,0,1,122.13,134.48Z" transform="translate(-1.01 -3.98)"/><path d="M122.13,92.55A31.45,31.45,0,1,0,153.58,124,31.49,31.49,0,0,0,122.13,92.55Zm0,58.71A27.26,27.26,0,1,1,149.39,124,27.28,27.28,0,0,1,122.13,151.26Z" transform="translate(-1.01 -3.98)"/><path d="M115.84,121.9h12.58v4.2H115.84Z" transform="translate(-1.01 -3.98)"/><path d="M120,100.94h4.19v4.19H120Z" transform="translate(-1.01 -3.98)"/><path d="M104.34,109.17l3-3,3,3-3,3Z" transform="translate(-1.01 -3.98)"/><path d="M99.07,121.9h4.19v4.2H99.07Z" transform="translate(-1.01 -3.98)"/><path d="M104.34,138.83l3-3,3,3-3,3Z" transform="translate(-1.01 -3.98)"/><path d="M120,142.87h4.19v4.19H120Z" transform="translate(-1.01 -3.98)"/><path d="M134,138.83l3-3,3,3-3,3Z" transform="translate(-1.01 -3.98)"/><path d="M141,121.9h4.2v4.2H141Z" transform="translate(-1.01 -3.98)"/><path d="M134,109.17l3-3,3,3-3,3Z" transform="translate(-1.01 -3.98)"/><path d="M122.13,69.58a6.29,6.29,0,1,0-6.29-6.29A6.29,6.29,0,0,0,122.13,69.58Zm0-8.39a2.1,2.1,0,1,1-2.09,2.1A2.1,2.1,0,0,1,122.13,61.19Z" transform="translate(-1.01 -3.98)"/><path d="M74.43,89.2a6.29,6.29,0,0,0-8.59,2.3,6.29,6.29,0,0,0,2.31,8.59,6.21,6.21,0,0,0,3.13.84A6.28,6.28,0,0,0,74.43,89.2ZM73.1,95.69a2.1,2.1,0,1,1-3.63-2.1,2.09,2.09,0,0,1,1.82-1,2.07,2.07,0,0,1,1,.28A2.09,2.09,0,0,1,73.1,95.69Z" transform="translate(-1.01 -3.98)"/><path d="M68.15,147.91h0a6.29,6.29,0,0,0,1.52,11.52,6.54,6.54,0,0,0,1.64.22,6.24,6.24,0,0,0,3.13-.85,6.29,6.29,0,1,0-6.28-10.89Zm4.19,7.26a2.1,2.1,0,1,1,.76-2.87A2.09,2.09,0,0,1,72.34,155.17Z" transform="translate(-1.01 -3.98)"/><path d="M122.13,176.42a6.29,6.29,0,1,0,6.29,6.29A6.29,6.29,0,0,0,122.13,176.42Zm0,8.39a2.1,2.1,0,1,1,2.1-2.1A2.1,2.1,0,0,1,122.13,184.81Z" transform="translate(-1.01 -3.98)"/><path d="M177.12,147.91A6.29,6.29,0,1,0,174,159.65a6.09,6.09,0,0,0,1.63-.22,6.29,6.29,0,0,0,1.52-11.52Zm-1.33,6.5a2.1,2.1,0,0,1-2.86.76,2.09,2.09,0,1,1,2.86-.76Z" transform="translate(-1.01 -3.98)"/><path d="M174,100.84a6.23,6.23,0,0,0,3.13-.84h0a6.29,6.29,0,0,0,2.29-8.59,6.18,6.18,0,0,0-3.81-2.93,6.24,6.24,0,0,0-4.78.62A6.29,6.29,0,0,0,174,100.84Zm-1.06-8.11a2.13,2.13,0,0,1,1-.28,2,2,0,0,1,.55.08,2.07,2.07,0,0,1,1.27,1,2.1,2.1,0,1,1-2.86-.77Z" transform="translate(-1.01 -3.98)"/></svg>