<svg height="496pt" viewBox="-30 0 496 496" width="496pt" xmlns="http://www.w3.org/2000/svg"><path d="m398.125 352c3.605469-6.257812 10.796875-9.070312 17.488281-7.503906l-67.523437-96.496094 67.523437-96.496094c-6.691406 1.566406-13.882812-1.246094-17.488281-7.503906-3.601562-6.230469-2.464844-13.839844 2.199219-18.847656l-.023438-.039063-117.25 10.222657-49.816406-106.726563c-1.992187 6.574219-8.023437 11.390625-15.246094 11.390625-7.226562 0-13.257812-4.816406-15.25-11.390625l-49.796875 106.726563-117.339844-10.238282c4.707032 5.007813 5.867188 12.644532 2.25 18.902344-3.609374 6.257812-10.800781 9.070312-17.488281 7.503906l67.519531 96.496094-67.519531 96.496094c6.6875-1.566406 13.878907 1.246094 17.488281 7.503906 3.601563 6.238281 2.464844 13.839844-2.199218 18.855469l.023437.039062 117.253907-10.222656 49.808593 106.726563c1.992188-6.582032 8.023438-11.398438 15.25-11.398438 7.222657 0 13.253907 4.816406 15.246094 11.390625l49.800781-106.726563 117.335938 10.238282c-4.703125-5.007813-5.863282-12.644532-2.246094-18.902344zm0 0" fill="#f0bc5e"/><path d="m217.988281 192c-30.871093 0-56 25.128906-56 56s25.128907 56 56 56c30.871094 0 56-25.128906 56-56s-25.128906-56-56-56zm0 96c-22.058593 0-40-17.945312-40-40s17.941407-40 40-40c22.054688 0 40 17.945312 40 40s-17.945312 40-40 40zm0 0"/><path d="m217.988281 128c-66.167969 0-120 53.832031-120 120s53.832031 120 120 120 120-53.832031 120-120-53.832031-120-120-120zm0 224c-57.34375 0-104-46.65625-104-104s46.65625-104 104-104 104 46.65625 104 104-46.65625 104-104 104zm0 0"/><path d="m193.988281 240h48v16h-48zm0 0"/><path d="m209.988281 160h16v16h-16zm0 0"/><path d="m150.105469 191.429688 11.3125-11.3125 11.3125 11.3125-11.3125 11.3125zm0 0"/><path d="m129.988281 240h16v16h-16zm0 0"/><path d="m150.101562 304.566406 11.3125-11.3125 11.3125 11.3125-11.3125 11.3125zm0 0"/><path d="m209.988281 320h16v16h-16zm0 0"/><path d="m263.238281 304.570312 11.3125-11.3125 11.3125 11.3125-11.3125 11.3125zm0 0"/><path d="m289.988281 240h16v16h-16zm0 0"/><path d="m263.242188 191.433594 11.3125-11.3125 11.3125 11.3125-11.3125 11.3125zm0 0"/><path d="m217.988281 48c13.230469 0 24-10.769531 24-24s-10.769531-24-24-24c-13.234375 0-24 10.769531-24 24s10.765625 24 24 24zm0-32c4.414063 0 8 3.585938 8 8s-3.585937 8-8 8c-4.417969 0-8-3.585938-8-8s3.582031-8 8-8zm0 0"/><path d="m35.996094 115.207031c-5.535156-3.191406-11.984375-4.0625-18.207032-2.390625-6.203124 1.664063-11.371093 5.640625-14.578124 11.183594-6.617188 11.457031-2.679688 26.167969 8.792968 32.792969 3.769532 2.167969 7.878906 3.199219 11.945313 3.199219 8.300781 0 16.390625-4.304688 20.832031-12 6.613281-11.464844 2.671875-26.160157-8.785156-32.785157zm-5.074219 24.792969c-2.199219 3.824219-7.132813 5.128906-10.917969 2.929688-3.824218-2.203126-5.144531-7.113282-2.929687-10.9375 1.074219-1.839844 2.792969-3.167969 4.847656-3.71875.691406-.183594 1.394531-.28125 2.089844-.28125 1.382812 0 2.75.367187 3.984375 1.078124 3.824218 2.203126 5.136718 7.105469 2.925781 10.929688zm0 0"/><path d="m12.003906 339.207031h-.015625c-11.457031 6.625-15.394531 21.335938-8.777343 32.785157 3.199218 5.550781 8.375 9.527343 14.570312 11.183593 2.070312.550781 4.167969.832031 6.246094.832031 4.160156 0 8.265625-1.085937 11.960937-3.214843 11.457031-6.617188 15.398438-21.320313 8.792969-32.792969-6.625-11.457031-21.320312-15.414062-32.777344-8.792969zm15.992188 27.722657c-1.855469 1.0625-4.023438 1.351562-6.074219.796874-2.0625-.550781-3.773437-1.878906-4.847656-3.726562-2.207031-3.824219-.894531-8.71875 2.921875-10.929688 3.832031-2.222656 8.734375-.871093 10.925781 2.921876 2.210937 3.832031.898437 8.734374-2.925781 10.9375zm0 0"/><path d="m217.988281 448c-13.234375 0-24 10.769531-24 24s10.765625 24 24 24c13.230469 0 24-10.769531 24-24s-10.769531-24-24-24zm0 32c-4.417969 0-8-3.585938-8-8s3.582031-8 8-8c4.414063 0 8 3.585938 8 8s-3.585937 8-8 8zm0 0"/><path d="m423.972656 339.207031c-11.464844-6.613281-26.167968-2.664062-32.785156 8.800781-6.609375 11.464844-2.664062 26.167969 8.792969 32.785157 3.695312 2.136719 7.800781 3.214843 11.960937 3.214843 2.078125 0 4.175782-.273437 6.246094-.832031 6.191406-1.65625 11.367188-5.632812 14.566406-11.175781 6.625-11.457031 2.691406-26.167969-8.78125-32.792969zm-5.074218 24.800781c-1.070313 1.839844-2.789063 3.167969-4.847657 3.71875-2.046875.5625-4.207031.273438-6.070312-.796874-3.824219-2.203126-5.136719-7.113282-2.929688-10.929688 2.191407-3.824219 7.121094-5.152344 10.921875-2.929688 3.824219 2.203126 5.144532 7.105469 2.925782 10.9375zm0 0"/><path d="m412.027344 159.992188c4.0625 0 8.175781-1.03125 11.945312-3.199219h.015625c11.457031-6.625 15.390625-21.335938 8.773438-32.785157-3.199219-5.550781-8.375-9.527343-14.566407-11.183593-6.199218-1.664063-12.65625-.816407-18.207031 2.390625-11.457031 6.617187-15.402343 21.320312-8.792969 32.792968 4.441407 7.679688 12.527344 11.984376 20.832032 11.984376zm-4.046875-30.921876c1.230469-.710937 2.597656-1.078124 3.984375-1.078124.695312 0 1.398437.097656 2.085937.28125 2.066407.542968 3.785157 1.871093 4.847657 3.726562 2.210937 3.824219.898437 8.71875-2.917969 10.929688-3.839844 2.214843-8.746094.871093-10.929688-2.921876-2.207031-3.832031-.894531-8.734374 2.929688-10.9375zm0 0"/></svg>